<?xml version="1.0" encoding="UTF-8"?>
<svg width="98px" height="106px" viewBox="0 0 98 106" version="1.1" xmlns="http://www.w3.org/2000/svg" xmlns:xlink="http://www.w3.org/1999/xlink">
    <!-- Generator: Sketch 40.2 (33826) - http://www.bohemiancoding.com/sketch -->
    <title>layout 3</title>
    <desc>Created with Sketch.</desc>
    <defs></defs>
    <g id="Page-1" stroke="none" stroke-width="1" fill="none" fill-rule="evenodd">
        <g id="layout-3" transform="translate(49.000000, 53.100000) scale(1, -1) translate(-49.000000, -53.100000) translate(0.000000, 0.100000)">
            <g id="products" transform="translate(0.000000, 38.000000)">
                <polygon id="Right-column-Copy-2" fill="#D5D3D3" points="49 0.655634206 73.5 0.655634206 98 0.655634206 98 12.5411704 98 24.4267066 73.5 24.4267066 49 24.4267066 49 12.5411704"></polygon>
                <polygon id="left-column-copy" fill="#EDEDED" points="0 0.607660914 24.5 0.607660914 49 0.607660914 49 12.527661 49 24.4476611 24.5 24.4476611 0 24.4476611 0 12.527661"></polygon>
            </g>
            <g id="heading-+-carousel" transform="translate(0.000000, 32.000000)">
                <polygon id="products-heading" fill="#D5D3D3" points="0 0 10 0 20 0 20 1.22188028 20 2.44376057 10 2.44376057 0 2.44376057 0 1.22188028"></polygon>
                <polygon id="products-heading-copy-3" fill="#F78601" points="91 0 92.25 0 93.5 0 93.5 1.25 93.5 2.5 92.25 2.5 91 2.5 91 1.25"></polygon>
                <polygon id="products-heading-copy-4" fill="#F78601" points="95.2999878 0 96.5499878 0 97.7999878 0 97.7999878 1.25 97.7999878 2.5 96.5499878 2.5 95.2999878 2.5 95.2999878 1.25"></polygon>
            </g>
            <g id="products-copy" transform="translate(0.000000, 0.399988)" fill="#EDEDED">
                <polygon id="Right-column-Copy" points="51 0.743623659 61.5 0.743623659 72 0.743623659 72 14.2242594 72 27.7048952 61.5 27.7048952 51 27.7048952 51 14.2242594"></polygon>
                <polygon id="Right-column-Copy-2" points="77 0.743623659 87.5 0.743623659 98 0.743623659 98 14.2242594 98 27.7048952 87.5 27.7048952 77 27.7048952 77 14.2242594"></polygon>
                <polygon id="left-column" points="0 14.206725 0 0.689212106 10.5 0.689212106 21 0.689212106 21 14.206725 21 27.7242379 10.5 27.7242379 0 27.7242379"></polygon>
                <polygon id="left-column-copy" points="26 0.689212106 36.5 0.689212106 47 0.689212106 47 14.206725 47 27.7242379 36.5 27.7242379 26 27.7242379 26 14.206725"></polygon>
            </g>
            <polygon id="left-column-copy-2" fill="#EDEDED" points="0 82.2218803 0 66 10.5 66 21 66 21 82.2218803 21 98.4437606 10.5 98.4437606 0 98.4437606"></polygon>
            <polygon id="left-column-copy-4" fill="#FFFFFF" points="3 89 3 88 10.5 88 18 88 18 89 18 90 10.5 90 3 90"></polygon>
            <polygon id="left-column-copy-6" fill="#FFFFFF" points="3 84 3 83 10.5 83 18 83 18 84 18 85 10.5 85 3 85"></polygon>
            <polygon id="left-column-copy-5" fill="#FFFFFF" points="3 79 3 78 10.5 78 18 78 18 79 18 80 10.5 80 3 80"></polygon>
            <polygon id="left-column-copy-8" fill="#FFFFFF" points="3 74 3 73 10.5 73 18 73 18 74 18 75 10.5 75 3 75"></polygon>
            <polygon id="header" fill="#EDEDED" points="24 80.3000246 24 66.1000248 61 66.1000248 98 66.1000248 98 80.3000246 98 94.5000244 61 94.5000244 24 94.5000244"></polygon>
            <polygon id="header-copy" fill="#D5D3D3" points="0 101.37002 0 97.6200195 49 97.6200195 98 97.6200195 98 101.37002 98 105.12002 49 105.12002 0 105.12002"></polygon>
            <g id="navigation" transform="translate(94.500000, 80.500000) rotate(90.000000) translate(-94.500000, -80.500000) translate(89.000000, 79.000000)" fill="#F78601">
                <polygon id="products-heading" points="0 0 1.25 0 2.5 0 2.5 1.25 2.5 2.5 1.25 2.5 0 2.5 0 1.25"></polygon>
                <polygon id="products-heading-copy" points="4 0 5.25 0 6.5 0 6.5 1.25 6.5 2.5 5.25 2.5 4 2.5 4 1.25"></polygon>
                <polygon id="products-heading-copy-2" points="8 0 9.25 0 10.5 0 10.5 1.25 10.5 2.5 9.25 2.5 8 2.5 8 1.25"></polygon>
            </g>
        </g>
    </g>
</svg>