<?xml version="1.0" encoding="UTF-8"?>
<svg width="98px" height="106px" viewBox="0 0 98 106" version="1.1" xmlns="http://www.w3.org/2000/svg" xmlns:xlink="http://www.w3.org/1999/xlink">
    <!-- Generator: Sketch 40.2 (33826) - http://www.bohemiancoding.com/sketch -->
    <title>layout 1</title>
    <desc>Created with Sketch.</desc>
    <defs></defs>
    <g id="Page-1" stroke="none" stroke-width="1" fill="none" fill-rule="evenodd">
        <g id="layout-1" transform="translate(49.000000, 53.100000) scale(1, -1) translate(-49.000000, -53.100000) translate(0.000000, 0.100000)">
            <g id="products" transform="translate(0.000000, 44.000000)" fill="#EDEDED">
                <polygon id="Right-column-Copy" points="51 0.655634206 61.5 0.655634206 72 0.655634206 72 12.5411704 72 24.4267066 61.5 24.4267066 51 24.4267066 51 12.5411704"></polygon>
                <polygon id="Right-column-Copy-2" points="77 0.655634206 87.5 0.655634206 98 0.655634206 98 12.5411704 98 24.4267066 87.5 24.4267066 77 24.4267066 77 12.5411704"></polygon>
                <polygon id="left-column" points="0 12.5257107 0 0.607660914 10.5 0.607660914 21 0.607660914 21 12.5257107 21 24.4437606 10.5 24.4437606 0 24.4437606"></polygon>
                <polygon id="left-column-copy" points="26 0.607660914 36.5 0.607660914 47 0.607660914 47 12.5257107 47 24.4437606 36.5 24.4437606 26 24.4437606 26 12.5257107"></polygon>
            </g>
            <g id="products-copy" transform="translate(0.000000, 0.399988)" fill="#EDEDED">
                <polygon id="Right-column-Copy" points="51 0.655634206 61.5 0.655634206 72 0.655634206 72 12.5411704 72 24.4267066 61.5 24.4267066 51 24.4267066 51 12.5411704"></polygon>
                <polygon id="Right-column-Copy-2" points="77 0.655634206 87.5 0.655634206 98 0.655634206 98 12.5411704 98 24.4267066 87.5 24.4267066 77 24.4267066 77 12.5411704"></polygon>
                <polygon id="left-column" points="0 12.5257107 0 0.607660914 10.5 0.607660914 21 0.607660914 21 12.5257107 21 24.4437606 10.5 24.4437606 0 24.4437606"></polygon>
                <polygon id="left-column-copy" points="26 0.607660914 36.5 0.607660914 47 0.607660914 47 12.5257107 47 24.4437606 36.5 24.4437606 26 24.4437606 26 12.5257107"></polygon>
            </g>
            <g id="tabs" transform="translate(28.000000, 71.000000)" fill="#D5D3D3">
                <polygon id="products-heading" points="0 0 6 0 12 0 12 1.22188028 12 2.44376057 6 2.44376057 0 2.44376057 0 1.22188028"></polygon>
                <polygon id="products-heading-copy" points="15 0 21 0 27 0 27 1.22188028 27 2.44376057 21 2.44376057 15 2.44376057 15 1.22188028"></polygon>
                <polygon id="products-heading-copy-2" points="30 0 36 0 42 0 42 1.22188028 42 2.44376057 36 2.44376057 30 2.44376057 30 1.22188028"></polygon>
            </g>
            <polygon id="header" fill="#EDEDED" points="0 90.5600098 0 76 49 76 98 76 98 90.5600098 98 105.12002 49 105.12002 0 105.12002"></polygon>
            <polygon id="header-copy" fill="#D5D3D3" points="0 101.37002 0 97.6200195 49 97.6200195 98 97.6200195 98 101.37002 98 105.12002 49 105.12002 0 105.12002"></polygon>
            <polygon id="banner" fill="#EDEDED" points="0 35.5 0 30 49 30 98 30 98 35.5 98 41 49 41 0 41"></polygon>
            <g id="navigation-copy" transform="translate(43.000000, 32.000000)" fill="#F78601">
                <polygon id="products-heading" points="0 0 1.25 0 2.5 0 2.5 1.25 2.5 2.5 1.25 2.5 0 2.5 0 1.25"></polygon>
                <polygon id="products-heading-copy" points="4 0 5.25 0 6.5 0 6.5 1.25 6.5 2.5 5.25 2.5 4 2.5 4 1.25"></polygon>
                <polygon id="products-heading-copy-2" points="8 0 9.25 0 10.5 0 10.5 1.25 10.5 2.5 9.25 2.5 8 2.5 8 1.25"></polygon>
            </g>
            <g id="navigation" transform="translate(43.000000, 78.000000)" fill="#F78601">
                <polygon id="products-heading" points="0 0 1.25 0 2.5 0 2.5 1.25 2.5 2.5 1.25 2.5 0 2.5 0 1.25"></polygon>
                <polygon id="products-heading-copy" points="4 0 5.25 0 6.5 0 6.5 1.25 6.5 2.5 5.25 2.5 4 2.5 4 1.25"></polygon>
                <polygon id="products-heading-copy-2" points="8 0 9.25 0 10.5 0 10.5 1.25 10.5 2.5 9.25 2.5 8 2.5 8 1.25"></polygon>
            </g>
        </g>
    </g>
</svg>